<svg xmlns="http://www.w3.org/2000/svg" viewBox="0 0 36.68 9.28"><title>hosco-logo</title><g id="a3677dae-e3d3-4380-82b2-9bcac435e708" data-name="Layer 2"><g id="a5e2c126-3c19-41e5-a469-9ce95037b68f" data-name="artwork"><path d="M6.05,9.12H4.26V5.29c0-.94-.35-1.42-1-1.42a1.21,1.21,0,0,0-1.09.51A3.16,3.16,0,0,0,1.79,6V9.12H0V0H1.79V1.86c0,.14,0,.48,0,1l0,.52H1.8a2.07,2.07,0,0,1,1.9-1,2.33,2.33,0,0,1,1.75.62,2.48,2.48,0,0,1,.6,1.79Z"/><path d="M13.84,5.83A3.52,3.52,0,0,1,13,8.33a3.08,3.08,0,0,1-2.35.9A3.26,3.26,0,0,1,9,8.82a2.65,2.65,0,0,1-1.1-1.19,3.92,3.92,0,0,1-.39-1.8,3.52,3.52,0,0,1,.84-2.5,3.07,3.07,0,0,1,2.35-.89,3.36,3.36,0,0,1,1.67.41A2.73,2.73,0,0,1,13.45,4,3.92,3.92,0,0,1,13.84,5.83Zm-4.53,0A2.76,2.76,0,0,0,9.63,7.3a1.14,1.14,0,0,0,1,.5,1.13,1.13,0,0,0,1-.5A2.77,2.77,0,0,0,12,5.83a2.73,2.73,0,0,0-.31-1.46,1.17,1.17,0,0,0-1-.49,1.14,1.14,0,0,0-1,.49A2.7,2.7,0,0,0,9.31,5.83Z"/><path d="M19.89,7.17a1.83,1.83,0,0,1-.7,1.54,3.5,3.5,0,0,1-2.1.52,7.16,7.16,0,0,1-1.22-.09,4.68,4.68,0,0,1-.94-.29V7.38a7.32,7.32,0,0,0,1.12.39,4.35,4.35,0,0,0,1.1.16c.65,0,1-.19,1-.56A.46.46,0,0,0,18,7a1.63,1.63,0,0,0-.44-.3q-.32-.16-.84-.39a5.33,5.33,0,0,1-1.12-.58,1.75,1.75,0,0,1-.51-.62,2,2,0,0,1-.16-.86,1.56,1.56,0,0,1,.67-1.35,3.32,3.32,0,0,1,1.92-.48A5.55,5.55,0,0,1,19.82,3l-.54,1.29c-.33-.14-.64-.26-.92-.35a2.93,2.93,0,0,0-.88-.13c-.52,0-.79.14-.79.43a.5.5,0,0,0,.26.41,6.71,6.71,0,0,0,1.11.52,5.21,5.21,0,0,1,1.13.58,1.81,1.81,0,0,1,.53.62A2,2,0,0,1,19.89,7.17Z"/><path d="M23.94,9.23c-2,0-3.06-1.11-3.06-3.35a3.57,3.57,0,0,1,.83-2.55,3.13,3.13,0,0,1,2.39-.89,4.5,4.5,0,0,1,2,.45l-.53,1.38L24.83,4a2.69,2.69,0,0,0-.73-.11c-.93,0-1.39.66-1.39,2s.46,1.92,1.39,1.92a3.21,3.21,0,0,0,.95-.14,3.41,3.41,0,0,0,.88-.43V8.75a3,3,0,0,1-.87.38A5,5,0,0,1,23.94,9.23Z"/><path d="M33.4,5.83a3.52,3.52,0,0,1-.84,2.5,3.07,3.07,0,0,1-2.35.9,3.22,3.22,0,0,1-1.66-.41,2.73,2.73,0,0,1-1.11-1.19,3.92,3.92,0,0,1-.39-1.8,3.52,3.52,0,0,1,.84-2.5,3.09,3.09,0,0,1,2.36-.89,3.32,3.32,0,0,1,1.66.41A2.81,2.81,0,0,1,33,4,3.91,3.91,0,0,1,33.4,5.83Zm-4.52,0a2.77,2.77,0,0,0,.31,1.47,1.16,1.16,0,0,0,1,.5,1.13,1.13,0,0,0,1-.5,2.76,2.76,0,0,0,.32-1.47,2.73,2.73,0,0,0-.32-1.46,1.34,1.34,0,0,0-2.07,0A2.71,2.71,0,0,0,28.88,5.83Z"/><path d="M34.63,8.28a1,1,0,0,1,.26-.74,1.07,1.07,0,0,1,.77-.26,1,1,0,0,1,.75.26,1,1,0,0,1,.27.74,1,1,0,0,1-.27.73A1.19,1.19,0,0,1,34.9,9,1,1,0,0,1,34.63,8.28Z"/></g></g></svg>